<svg width="130" height="130" viewBox="0 0 130 130" fill="none" xmlns="http://www.w3.org/2000/svg">
<path d="M0 16C0 7.16344 7.16344 0 16 0H114C122.837 0 130 7.16344 130 16V114C130 122.837 122.837 130 114 130H16C7.16344 130 0 122.837 0 114V16Z" fill="white"/>
<path d="M86.2342 77.8561C85.9987 78.5194 85.371 78.9627 84.667 78.9627C83.5108 78.9627 82.7075 77.8119 83.106 76.7266L91.9676 52.5928C92.3301 51.6055 93.2702 50.9492 94.322 50.9492C95.3737 50.9492 96.3138 51.6055 96.6763 52.5928L105.538 76.7266C105.936 77.8119 105.133 78.9627 103.977 78.9627C103.273 78.9627 102.645 78.5194 102.41 77.8561L94.468 55.4842C94.446 55.4223 94.3875 55.381 94.322 55.381C94.2564 55.381 94.1979 55.4223 94.1759 55.4842L86.2342 77.8561ZM87.1544 69.5246C87.1544 68.6936 87.8281 68.0199 88.6591 68.0199H99.9848C100.816 68.0199 101.489 68.6936 101.489 69.5246C101.489 70.3555 100.816 71.0292 99.9848 71.0292H88.6591C87.8281 71.0292 87.1544 70.3555 87.1544 69.5246Z" fill="black"/>
<path d="M57.1537 78.9627C56.1181 78.9627 55.2105 78.2699 54.9373 77.271L48.311 53.0375C48.0235 51.9861 48.8149 50.9492 49.905 50.9492C50.6594 50.9492 51.3181 51.4602 51.5056 52.191L57.0073 73.6321C57.0273 73.7102 57.0978 73.7649 57.1784 73.7649C57.2588 73.7649 57.3291 73.7106 57.3494 73.6328L62.7944 52.802C63.0797 51.7106 64.0656 50.9492 65.1937 50.9492C66.3218 50.9492 67.3077 51.7106 67.593 52.802L73.038 73.6328C73.0583 73.7106 73.1286 73.7649 73.209 73.7649C73.2896 73.7649 73.3601 73.7102 73.3801 73.6321L78.8818 52.191C79.0693 51.4602 79.728 50.9492 80.4824 50.9492C81.5725 50.9492 82.3639 51.9861 82.0764 53.0375L75.45 77.271C75.1769 78.2699 74.2693 78.9627 73.2336 78.9627C72.2008 78.9627 71.2949 78.2736 71.0193 77.2782L65.3323 56.7449C65.3151 56.6826 65.2584 56.6395 65.1937 56.6395C65.129 56.6395 65.0723 56.6826 65.0551 56.7449L59.3681 77.2782C59.0925 78.2736 58.1866 78.9627 57.1537 78.9627Z" fill="black"/>
<path d="M27.5575 78.9627C26.6207 78.9627 25.8613 78.2033 25.8613 77.2666V60.4147C25.8613 55.1871 30.0992 50.9492 35.3268 50.9492C37.5245 50.9492 39.3209 51.3459 40.7161 52.1392C42.1204 52.9235 43.16 53.9858 43.8348 55.3263C44.5096 56.6668 44.847 58.1623 44.847 59.8129C44.847 61.4634 44.5096 62.9635 43.8348 64.3131C43.1691 65.6627 42.1387 66.7387 40.7435 67.5412C39.3483 68.3345 37.561 68.7312 35.3815 68.7312H30.1016C29.2707 68.7312 28.597 68.0576 28.597 67.2266C28.597 66.3956 29.2707 65.7219 30.1016 65.7219H35.2721C36.7767 65.7219 37.985 65.4621 38.8969 64.9423C39.8088 64.4225 40.4699 63.7203 40.8803 62.8358C41.2997 61.9421 41.5095 60.9345 41.5095 59.8129C41.5095 58.6912 41.2997 57.6881 40.8803 56.8036C40.4699 55.9191 39.8042 55.226 38.8832 54.7245C37.9622 54.2138 36.7403 53.9585 35.2174 53.9585C31.9237 53.9585 29.2536 56.6286 29.2536 59.9223V77.2666C29.2536 78.2033 28.4942 78.9627 27.5575 78.9627Z" fill="black"/>
</svg>
